<svg width="175" height="112" viewBox="0 0 175 112" fill="none" xmlns="http://www.w3.org/2000/svg">
<path d="M76.7699 94.0684L95.8843 44.9505H82.8517L76.7699 65.1755V94.0684Z" fill="#04C983"/>
<path d="M82.275 16.0576L63.1606 65.1754H76.1932L82.275 44.9504V16.0576Z" fill="#FEC111"/>
<path d="M15.4143 83.0577V27.4353H25.9031V50.3994H46.5629V27.4353H57.0517V83.0577H46.5629V59.9347H25.9031V83.0577H15.4143Z" fill="#F0F0F0"/>
<path d="M15.4143 83.0577H14.3009V84.1712H15.4143V83.0577ZM15.4143 27.4353V26.3219H14.3009V27.4353H15.4143ZM25.9031 27.4353H27.0166V26.3219H25.9031V27.4353ZM25.9031 50.3994H24.7897V51.5129H25.9031V50.3994ZM46.5629 50.3994V51.5129H47.6763V50.3994H46.5629ZM46.5629 27.4353V26.3219H45.4494V27.4353H46.5629ZM57.0517 27.4353H58.1651V26.3219H57.0517V27.4353ZM57.0517 83.0577V84.1712H58.1651V83.0577H57.0517ZM46.5629 83.0577H45.4494V84.1712H46.5629V83.0577ZM46.5629 59.9347H47.6763V58.8213H46.5629V59.9347ZM25.9031 59.9347V58.8213H24.7897V59.9347H25.9031ZM25.9031 83.0577V84.1712H27.0166V83.0577H25.9031ZM16.5278 83.0577V27.4353H14.3009V83.0577H16.5278ZM15.4143 28.5488H25.9031V26.3219H15.4143V28.5488ZM24.7897 27.4353V50.3994H27.0166V27.4353H24.7897ZM25.9031 51.5129H46.5629V49.286H25.9031V51.5129ZM47.6763 50.3994V27.4353H45.4494V50.3994H47.6763ZM46.5629 28.5488H57.0517V26.3219H46.5629V28.5488ZM55.9382 27.4353V83.0577H58.1651V27.4353H55.9382ZM57.0517 81.9443H46.5629V84.1712H57.0517V81.9443ZM47.6763 83.0577V59.9347H45.4494V83.0577H47.6763ZM46.5629 58.8213H25.9031V61.0482H46.5629V58.8213ZM24.7897 59.9347V83.0577H27.0166V59.9347H24.7897ZM25.9031 81.9443H15.4143V84.1712H25.9031V81.9443Z" fill="#F0F0F0"/>
<path d="M160.713 50.2929C160.713 44.8275 159.223 40.48 156.242 37.2504C153.219 34.0209 148.913 32.4061 143.323 32.4061L132.889 32.4061C127.3 32.4061 123.014 34.0209 120.033 37.2504C117.011 40.48 115.499 44.8275 115.499 50.2929C115.499 55.7583 117.011 60.1058 120.033 63.3354C123.014 66.565 127.3 68.1798 132.889 68.1798L143.323 68.1798C148.913 68.1798 153.219 66.565 156.242 63.3354C159.223 60.1058 160.713 55.7583 160.713 50.2929ZM153.385 50.2929C153.385 53.3569 152.494 55.7376 150.714 57.4352C148.934 59.1328 146.553 59.9816 143.572 59.9816L132.641 59.9816C129.66 59.9816 127.279 59.1328 125.499 57.4352C123.718 55.7376 122.828 53.3569 122.828 50.2929C122.828 47.2704 123.718 44.8896 125.499 43.1506C127.279 41.453 129.66 40.6042 132.641 40.6042L143.572 40.6042C146.553 40.6042 148.934 41.453 150.714 43.1506C152.494 44.8896 153.385 47.2704 153.385 50.2929Z" fill="#F0F0F0"/>
<rect x="100.119" y="27.0937" width="10.2085" height="57.3882" fill="#F0F0F0"/>
<rect x="161.921" y="74.5491" width="9.93257" height="51.8701" transform="rotate(90 161.921 74.5491)" fill="#F0F0F0"/>
</svg>
