<svg width="106" height="119" viewBox="0 0 106 119" fill="none" xmlns="http://www.w3.org/2000/svg">
<path d="M46.4664 1.74169L6.35982 24.9516C2.48234 27.188 0.0919305 31.3362 0.0931057 35.8265L0.0931077 82.2462C0.0606781 86.7057 2.38975 90.8468 6.20942 93.1212L46.316 116.331C50.1937 118.579 54.9714 118.579 58.8492 116.331L98.9557 93.1211C102.806 90.8645 105.174 86.7236 105.172 82.2462V35.8265C105.205 31.3801 102.899 27.246 99.1061 24.9516L58.9995 1.74169C55.1164 -0.486162 50.3497 -0.486162 46.4664 1.74169Z" fill="#232C36"/>
<path d="M17.3868 92.6743L34.1476 49.6043H22.7198L17.3868 67.339V92.6743Z" fill="#04C983"/>
<path d="M22.2147 24.2694L5.45385 67.3393H16.8817L22.2147 49.6046V24.2694Z" fill="#FEC111"/>
<path d="M38.0427 77.973V62.1276H44.562C45.5579 62.1276 46.4332 62.3313 47.1878 62.7388C47.9574 63.1312 48.5535 63.6895 48.976 64.4139C49.4136 65.1382 49.6325 65.9984 49.6325 66.9944V67.3113C49.6325 68.2922 49.4061 69.1524 48.9534 69.8918C48.5157 70.6162 47.9121 71.1821 47.1425 71.5896C46.3879 71.9819 45.5278 72.1781 44.562 72.1781H41.0307V77.973H38.0427ZM41.0307 69.4618H44.2677C44.9769 69.4618 45.5504 69.2656 45.988 68.8732C46.4257 68.4809 46.6445 67.9451 46.6445 67.266V67.0397C46.6445 66.3606 46.4257 65.8249 45.988 65.4325C45.5504 65.0401 44.9769 64.844 44.2677 64.844H41.0307V69.4618Z" fill="#04C983"/>
<path d="M51.704 77.973V62.1276H58.5854C59.5814 62.1276 60.4492 62.3012 61.1886 62.6482C61.9281 62.9953 62.5015 63.4858 62.909 64.1196C63.3164 64.7534 63.5201 65.5004 63.5201 66.3606V66.6322C63.5201 67.5829 63.2938 68.3526 62.841 68.9411C62.3883 69.5297 61.83 69.9597 61.166 70.2314V70.6388C61.7696 70.669 62.2374 70.8803 62.5694 71.2727C62.9014 71.6499 63.0674 72.1555 63.0674 72.7893V77.973H60.0794V73.2194C60.0794 72.8572 59.9813 72.5629 59.7852 72.3365C59.6041 72.1102 59.2947 71.997 58.8571 71.997H54.692V77.973H51.704ZM54.692 69.2807H58.2685C58.9778 69.2807 59.5286 69.092 59.921 68.7148C60.3284 68.3224 60.5322 67.8093 60.5322 67.1755V66.9491C60.5322 66.3153 60.336 65.8098 59.9436 65.4325C59.5513 65.0401 58.9929 64.844 58.2685 64.844H54.692V69.2807Z" fill="#04C983"/>
<path d="M66.0064 77.973V62.1276H68.9944V77.973H66.0064Z" fill="#04C983"/>
<path d="M77.9962 78.2899C76.0344 78.2899 74.48 77.7466 73.3331 76.6601C72.1862 75.5584 71.6128 73.989 71.6128 71.9517V68.1488C71.6128 66.1116 72.1862 64.5497 73.3331 63.4632C74.48 62.3615 76.0344 61.8107 77.9962 61.8107C79.9429 61.8107 81.4444 62.3464 82.5008 63.4179C83.5722 64.4742 84.1079 65.9305 84.1079 67.7867V67.9225H81.1652V67.6961C81.1652 66.7605 80.9012 65.9909 80.373 65.3872C79.8599 64.7836 79.0676 64.4818 77.9962 64.4818C76.9398 64.4818 76.1098 64.8062 75.5062 65.4551C74.9025 66.104 74.6007 66.9869 74.6007 68.1036V71.997C74.6007 73.0986 74.9025 73.9814 75.5062 74.6454C76.1098 75.2943 76.9398 75.6188 77.9962 75.6188C79.0676 75.6188 79.8599 75.317 80.373 74.7133C80.9012 74.0946 81.1652 73.325 81.1652 72.4045V71.997H84.1079V72.3139C84.1079 74.1701 83.5722 75.6339 82.5008 76.7053C81.4444 77.7617 79.9429 78.2899 77.9962 78.2899Z" fill="#04C983"/>
<path d="M86.5426 77.973V62.1276H96.7289V64.844H89.5306V68.6242H96.0951V71.3406H89.5306V75.2566H96.8647V77.973H86.5426Z" fill="#04C983"/>
<path d="M44.5005 56.967C43.1108 56.967 41.8842 56.7182 40.8205 56.2207C39.7569 55.7231 38.9248 55.0112 38.3244 54.0848C37.7239 53.1583 37.4237 52.0432 37.4237 50.7394V50.0188H40.7691V50.7394C40.7691 51.8202 41.1036 52.6351 41.7727 53.1841C42.4418 53.7159 43.351 53.9818 44.5005 53.9818C45.6671 53.9818 46.5334 53.7502 47.0996 53.287C47.6829 52.8238 47.9745 52.2319 47.9745 51.5114C47.9745 51.0139 47.8287 50.6107 47.5371 50.3019C47.2626 49.9931 46.8508 49.7443 46.3018 49.5556C45.77 49.3497 45.1181 49.161 44.3461 48.9895L43.7542 48.8608C42.519 48.5863 41.4553 48.2432 40.5632 47.8315C39.6883 47.4026 39.0106 46.845 38.5302 46.1588C38.067 45.4725 37.8354 44.5804 37.8354 43.4824C37.8354 42.3845 38.0928 41.4495 38.6074 40.6775C39.1393 39.8883 39.877 39.2878 40.8205 38.8761C41.7813 38.4472 42.905 38.2327 44.1917 38.2327C45.4784 38.2327 46.6192 38.4558 47.6143 38.9018C48.6265 39.3307 49.4156 39.9826 49.9818 40.8576C50.5651 41.7154 50.8567 42.7962 50.8567 44.1V44.8721H47.5113V44.1C47.5113 43.4138 47.3741 42.8648 47.0996 42.4531C46.8423 42.0242 46.4648 41.7154 45.9673 41.5267C45.4698 41.3208 44.8779 41.2179 44.1917 41.2179C43.1623 41.2179 42.3989 41.4152 41.9014 41.8097C41.421 42.1872 41.1808 42.7104 41.1808 43.3795C41.1808 43.8256 41.2923 44.203 41.5154 44.5118C41.7555 44.8206 42.1072 45.0779 42.5704 45.2838C43.0336 45.4897 43.6255 45.6698 44.3461 45.8242L44.938 45.9529C46.2246 46.2274 47.3398 46.5791 48.2833 47.008C49.2441 47.4369 49.9904 48.003 50.5222 48.7064C51.054 49.4098 51.3199 50.3105 51.3199 51.4085C51.3199 52.5064 51.0369 53.4757 50.4707 54.3164C49.9217 55.1399 49.1326 55.7918 48.1032 56.2721C47.091 56.7353 45.8901 56.967 44.5005 56.967Z" fill="#FEC111"/>
<path d="M52.6181 56.6067L57.3531 38.593H63.2719L68.0069 56.6067H64.5071L63.5292 52.6437H57.0958L56.1179 56.6067H52.6181ZM57.8935 49.5041H62.7315L60.5441 40.7289H60.0809L57.8935 49.5041Z" fill="#FEC111"/>
<path d="M70.1631 56.6067V38.593H73.56V53.5186H81.7948V56.6067H70.1631Z" fill="#FEC111"/>
<path d="M84.1106 56.6067V38.593H95.6908V41.6811H87.5075V45.9786H94.9703V49.0667H87.5075V53.5186H95.8453V56.6067H84.1106Z" fill="#FEC111"/>
</svg>
